<svg id="Capa_1" enable-background="new 0 0 512.004 512.004" height="512" viewBox="0 0 512.004 512.004" width="512" xmlns="http://www.w3.org/2000/svg"><g><path d="m285.639 502h-209.67v-43.488c0-11.69 9.476-21.167 21.166-21.167h317c11.69 0 21.167 9.477 21.167 21.167v43.488h-50.342" fill="#ec9271"/><g><g><path d="m137.624 241.315c13.884 0 26.102 7.133 33.189 17.935l56.571-75.345-18.033-18.033c-6.688-6.688-11.185-14.736-13.494-23.254l-78.105 104.026c5.844-3.388 12.631-5.329 19.872-5.329z" fill="#fff"/></g><path d="m132.418 321.995 92.965 115.35h63.174c-.878-2.008-2.037-3.934-3.483-5.72l-108.405-134.43" fill="#fff"/></g><g><path d="m346.442 437.345h-50.5v-19.095c0-13.945 11.305-25.25 25.25-25.25 13.945 0 25.25 11.305 25.25 25.25z" fill="#00dba8"/></g><circle cx="137.624" cy="280.982" fill="#fee77b" r="39.667"/><g><path d="" fill="#ec9271"/><path d="m335.341 512c-6.894.189-12.068-7.532-9.23-13.83 3.299-8.157 15.162-8.15 18.47 0 2.835 6.302-2.349 14.023-9.24 13.83z"/></g><g><g><path d="m387.574 206.428c-12.921 12.921-33.871 12.921-46.792 0l-7.066-7.066 46.792-46.792 7.066 7.066c12.921 12.921 12.921 33.87 0 46.792z" fill="#fee77b"/></g><path d="m274.042 27.213-65.683 65.683-12.427-12.427c-6.381-6.381-6.381-16.728 0-23.109l42.574-42.574c6.381-6.382 16.728-6.382 23.109 0z" fill="#6eb4c7"/><path d="m231.54 142.267h223.226v39.481h-223.226z" fill="#6eb4c7" transform="matrix(.707 -.707 .707 .707 -14.049 290.097)"/><g><path d="m398.029 79.215-137.668 137.667-51.01-51.01c-20.425-20.426-20.425-53.542 0-73.968l63.699-63.699c20.426-20.426 53.542-20.426 73.968 0z" fill="#b8ecff"/><path d="m414.135 427.346h-57.693v-9.096c0-19.436-15.813-35.25-35.25-35.25-18.953 0-34.461 15.037-35.22 33.807l-100.079-124.104c.913-3.76 1.398-7.685 1.398-11.722 0-7.308-1.587-14.251-4.433-20.505l45.375-61.58 17.986 17.987-3.017 3.017c-1.875 1.876-2.929 4.419-2.929 7.071s1.054 5.195 2.929 7.071l27.917 27.917c1.953 1.952 4.512 2.929 7.071 2.929 2.56 0 5.118-.977 7.071-2.929l48.455-48.455c8.137 8.134 18.955 12.613 30.462 12.613 11.509 0 22.329-4.481 30.467-12.619 16.797-16.799 16.799-44.13.005-60.928l48.456-48.456c3.905-3.905 3.905-10.237 0-14.142l-27.917-27.918c-1.875-1.875-4.419-2.929-7.071-2.929s-5.195 1.054-7.071 2.929l-3.018 3.018-43.939-43.938c-21.539-21.537-55.053-23.979-79.308-7.323l-6.096-6.096c-4.974-4.975-11.59-7.715-18.625-7.715-7.036 0-13.651 2.74-18.626 7.715l-42.573 42.574c-4.975 4.975-7.715 11.59-7.715 18.625 0 7.036 2.74 13.651 7.715 18.626l6.095 6.095c-9.406 13.697-12.722 30.347-9.947 46.126l-73.196 98.8c-14.294 8.73-23.856 24.479-23.856 42.419 0 23.134 15.898 42.624 37.343 48.119l79.18 98.245h-107.346c-17.185 0-31.166 13.981-31.166 31.166v43.49c0 5.522 4.477 10 10 10h209.67c5.522 0 10-4.478 10-10s-4.478-10-10-10h-199.671v-33.488c0-6.157 5.009-11.166 11.166-11.166h317.001c6.157 0 11.167 5.009 11.167 11.166v33.488h-40.342c-5.523 0-10 4.478-10 10s4.477 10 10 10h50.343c5.522 0 10-4.478 10-10v-43.488c-.001-17.185-13.982-31.166-31.168-31.166zm-33.632-227.99c-9.002 9.002-23.642 9-32.644.006l32.65-32.65c8.996 9.002 8.993 23.645-.006 32.644zm41.39-102.312-143.703 143.703-13.775-13.775 143.703-143.703zm-153.116 330.301h-38.61l-79.363-98.472c10.053-2.77 18.839-8.628 25.269-16.486zm71.17-392.069 43.939 43.938-123.525 123.526-43.938-43.939c-16.482-16.482-16.494-43.29-.037-59.787l63.737-63.737c8.247-8.247 19.08-12.371 29.912-12.371 10.832-.001 21.665 4.123 29.912 12.37zm-136.943 29.156 42.574-42.575c1.198-1.197 2.79-1.856 4.483-1.856s3.285.659 4.483 1.857l5.356 5.355-51.541 51.541-5.356-5.356c-1.197-1.197-1.857-2.789-1.857-4.483s.66-3.286 1.858-4.483zm-.724 108.511 11.649 11.649-43.542 59.092c-7.737-6.805-17.601-11.246-28.451-12.184l51.557-69.592c2.451 3.922 5.38 7.629 8.787 11.035zm-94.322 108.038c0-16.358 13.308-29.667 29.666-29.667s29.667 13.308 29.667 29.667c0 16.358-13.308 29.667-29.667 29.667-16.358 0-29.666-13.308-29.666-29.667zm197.984 146.365v-9.096c0-8.409 6.841-15.25 15.25-15.25s15.25 6.841 15.25 15.25v9.096z"/></g></g></g></svg>